<svg xmlns="http://www.w3.org/2000/svg" viewBox="0 0 64 64">
  <rect width="64" height="64" rx="14" fill="#141432"/>
  <path d="M14 40c0 5 4.5 8 10.5 8S35 45 35 40.5c0-4.1-3-6.3-8.3-7.7l-3.4-.9c-2.7-.7-4.3-1.9-4.3-4 0-2.5 2.3-4.2 5.6-4.2 3.2 0 5.5 1.6 5.9 4.2h5.8c-.3-5.3-4.8-9-11.6-9C18.1 18.9 13 22.6 13 27.9c0 4.3 2.9 6.6 7.8 7.9l3.9 1c3.1.8 4.5 2 4.5 4 0 2.4-2.4 4.1-6 4.1-3.5 0-6.1-1.6-6.5-4.9H14z" fill="#D9A62E"/>
  <circle cx="45" cy="24" r="6" fill="#D9A62E" opacity="0.9"/>
  <path d="M41 34h8v11h-8z" fill="#2A4DD0"/>
</svg>
